<?xml version="1.0" encoding="UTF-8"?>
<svg version="1.1" xmlns="http://www.w3.org/2000/svg" width="600" height="588">
<path d="M0 0 C91.08 0 182.16 0 276 0 C274.90355403 4.38578387 273.01643521 7.85662369 270.8125 11.75 C270.37252686 12.53439453 269.93255371 13.31878906 269.47924805 14.12695312 C264.65016092 22.69498363 259.67331345 31.17743241 254.703125 39.6640625 C250.96365411 46.05281992 247.25874966 52.46116076 243.5625 58.875 C242.94028564 59.95458984 242.31807129 61.03417969 241.67700195 62.14648438 C240.41488483 64.3368252 239.15292215 66.52725502 237.89111328 68.71777344 C234.76319852 74.14659942 231.63141552 79.57319281 228.5 85 C227.24998121 87.16665583 225.99998122 89.3333225 224.75 91.5 C222.25 95.83333333 219.75 100.16666667 217.25 104.5 C216.63116943 105.57266113 216.01233887 106.64532227 215.37475586 107.75048828 C214.12564482 109.91557071 212.87645871 112.08060982 211.62719727 114.24560547 C208.48797691 119.68615706 205.35009437 125.12747216 202.21484375 130.5703125 C195.59777108 142.0544882 188.95366023 153.52196894 182.26708984 164.96582031 C176.10080946 175.52620282 169.9950405 186.12126766 163.89111328 196.71777344 C160.76319852 202.14659942 157.63141552 207.57319281 154.5 213 C153.24998121 215.16665583 151.99998122 217.3333225 150.75 219.5 C148.25 223.83333333 145.75 228.16666667 143.25 232.5 C142.6302832 233.57419189 142.01056641 234.64838379 141.37207031 235.75512695 C140.13189239 237.90473634 138.89165873 240.05431358 137.65136719 242.20385742 C134.7264977 247.27309212 131.80219167 252.34264936 128.87988281 257.4133606 C127.50193062 259.80426597 126.12365828 262.19498672 124.74536133 264.58569336 C123.77459018 266.26983963 122.80428126 267.95425231 121.83398438 269.63867188 C121.24423828 270.66154297 120.65449219 271.68441406 120.046875 272.73828125 C119.52963867 273.63587158 119.01240234 274.53346191 118.47949219 275.45825195 C117.0082728 277.98578745 115.51048171 280.4957655 114 283 C110.33089002 282.431775 108.75521765 281.05620402 106.25 278.375 C103.57346728 275.58922105 100.87210837 272.95043649 97.9375 270.4375 C94.73298112 267.68273816 91.75397578 264.78575857 88.8046875 261.76171875 C86.21155433 259.23032685 83.41788974 256.9538529 80.6015625 254.67578125 C78.68213831 252.66740813 78.27374914 251.75822545 78 249 C79.10131836 246.41992188 79.10131836 246.41992188 80.83984375 243.46875 C81.48244141 242.36273438 82.12503906 241.25671875 82.78710938 240.1171875 C83.50380925 238.91140067 84.22060892 237.70567316 84.9375 236.5 C85.67252961 235.24295004 86.4062331 233.98512381 87.13867188 232.7265625 C88.66267049 230.11023456 90.19234608 227.4973541 91.72607422 224.88671875 C95.20448806 218.95519697 98.59792114 212.97553843 102 207 C103.33242277 204.666146 104.66621384 202.33307503 106 200 C106.66669186 198.83334773 107.33335854 197.66668107 108 196.5 C128.76041667 160.16927083 149.52083333 123.83854167 170.28125 87.5078125 C170.88195312 86.44852539 171.48265625 85.38923828 172.1015625 84.29785156 C173.44619112 81.96204351 174.81091214 79.65238697 176.2109375 77.35058594 C176.57731323 76.73762665 176.94368896 76.12466736 177.32116699 75.49313354 C178.34377101 73.78410558 179.37947957 72.08293839 180.41601562 70.38232422 C182.7125019 65.47857562 183.93746249 60.03095944 182.0625 54.75 C180.35782644 51.15852938 178.40060342 49.4783013 174.73274231 47.7891922 C168.47580185 45.98224224 161.7617444 46.4856324 155.30273438 46.54589844 C153.6069949 46.54702785 151.91125348 46.54639122 150.21551514 46.54412842 C145.62918536 46.54298402 141.04327678 46.56644882 136.4570446 46.59442425 C131.65778634 46.61948367 126.85851769 46.62178348 122.0592041 46.62652588 C112.97872371 46.63894232 103.89843669 46.6717459 94.81804132 46.71192384 C84.47708835 46.75668301 74.13612599 46.77863901 63.79510021 46.79870558 C42.52993501 46.84047976 21.26503478 46.91381548 0 47 C0 31.49 0 15.98 0 0 Z " fill="#39A900" transform="translate(0,261)"/>
<path d="M0 0 C0.66 0 1.32 0 2 0 C3.35075977 1.97933114 4.56188499 3.94221098 5.75390625 6.015625 C6.12641006 6.64947617 6.49891388 7.28332733 6.88270569 7.93638611 C7.69097524 9.31341363 8.49590266 10.69240697 9.2979126 12.0730896 C11.44354956 15.76667329 13.61248781 19.44656648 15.77734375 23.12890625 C16.21763916 23.87952835 16.65793457 24.63015045 17.11157227 25.40351868 C21.20728136 32.37820988 25.40540263 39.28730479 29.625 46.1875 C35.71830983 56.16782641 41.67407966 66.22151146 47.56304932 76.32357788 C52.782859 85.27360084 58.1002829 94.15744783 63.5 103 C69.21663392 112.36438456 74.84245841 121.77564701 80.375 131.25 C80.72173767 131.84373413 81.06847534 132.43746826 81.42572021 133.04919434 C81.7736261 133.64494263 82.12153198 134.24069092 82.47998047 134.85449219 C87.82592691 144.00768235 93.21129125 153.13671993 98.625 162.25 C99.22752594 163.2643512 99.22752594 163.2643512 99.84222412 164.29919434 C105.6318388 174.04272776 111.45051813 183.76850835 117.29296875 193.48046875 C120.78025176 199.28265054 124.24751851 205.09617433 127.6953125 210.921875 C128.09962997 211.60486664 128.50394745 212.28785828 128.92051697 212.99154663 C132.31029913 218.71796498 132.31029913 218.71796498 133.84414673 221.31109619 C139.5493972 230.95145449 145.34086892 240.52646191 151.34423828 249.98535156 C152.07682861 251.1488916 152.07682861 251.1488916 152.82421875 252.3359375 C153.45976685 253.33439697 153.45976685 253.33439697 154.1081543 254.35302734 C155 256 155 256 155 258 C149.52178174 260.83533165 144.0407805 263.66518115 138.55712891 266.48999023 C136.69209553 267.45170383 134.82783116 268.41491028 132.96435547 269.37963867 C130.2855389 270.76614389 127.60400165 272.14725494 124.921875 273.52734375 C124.08944275 273.95965805 123.2570105 274.39197235 122.39935303 274.83738708 C121.61884583 275.23772659 120.83833862 275.6380661 120.03417969 276.05053711 C119.35023132 276.40361435 118.66628296 276.75669159 117.96160889 277.12046814 C115.99020244 278.00439296 114.10782787 278.5439615 112 279 C105.77619978 268.73338937 99.694568 258.38452084 93.62966919 248.02359009 C88.93634745 240.00583741 84.23309462 231.99437178 79.5 224 C74.53824396 215.61830737 69.60848078 207.21816272 64.6875 198.8125 C58.50323745 188.24933586 52.28161329 177.70929381 46.03125 167.18505859 C42.53831233 161.29890746 39.05978557 155.40497181 35.60546875 149.49609375 C35.23889664 148.86912094 34.87232452 148.24214813 34.49464417 147.59617615 C33.03176678 145.09364363 31.56907184 142.59100551 30.10745239 140.08773804 C25.20060465 131.68737537 20.22519003 123.33519955 15.0456543 115.09936523 C12 110.20960843 12 110.20960843 12 108 C6.14735093 105.65894037 1.0112764 104.79117493 -4.89672852 107.1628418 C-8.53149103 109.31464637 -9.71891094 111.09995049 -11.77734375 114.7578125 C-12.26908836 115.61443985 -12.26908836 115.61443985 -12.77076721 116.4883728 C-13.84097321 118.35934119 -14.88878422 120.24191664 -15.9375 122.125 C-16.68826306 123.4444087 -17.44089457 124.76275582 -18.1953125 126.08007812 C-19.34971269 128.09648079 -20.50286674 130.11349078 -21.65011597 132.13397217 C-25.16284111 138.3193638 -28.81486414 144.41588576 -32.5 150.5 C-38.22855245 159.99939931 -43.85033397 169.55702228 -49.44018555 179.13827515 C-54.86157965 188.4243532 -60.39520844 197.63608837 -66 206.8125 C-70.67302125 214.46357962 -75.28706761 222.12827474 -79.61352539 229.98193359 C-83.68380306 237.32610915 -88.05380923 244.49291075 -92.39599609 251.6784668 C-95.33481416 256.54437258 -98.25751899 261.41432414 -101.08203125 266.34765625 C-101.76664429 267.53887085 -101.76664429 267.53887085 -102.46508789 268.75415039 C-103.29872718 270.21123718 -104.12519296 271.67246064 -104.94311523 273.13842773 C-107.66863184 277.88954395 -107.66863184 277.88954395 -111 279 C-112.84135437 278.39894104 -112.84135437 278.39894104 -114.9206543 277.36938477 C-115.70123703 276.98891495 -116.48181976 276.60844513 -117.28605652 276.21644592 C-118.12365005 275.79568283 -118.96124359 275.37491974 -119.82421875 274.94140625 C-121.11632011 274.30669655 -121.11632011 274.30669655 -122.43452454 273.65916443 C-125.1901934 272.3028583 -127.93881112 270.93288794 -130.6875 269.5625 C-132.55228695 268.64167147 -134.41751613 267.72173795 -136.28320312 266.80273438 C-140.86066881 264.54551733 -145.43185676 262.27602078 -150 260 C-149.18068608 256.38901641 -147.81689243 253.65686314 -145.96484375 250.43359375 C-145.01061523 248.76683594 -145.01061523 248.76683594 -144.03710938 247.06640625 C-143.33744628 245.85665127 -142.63757061 244.6470192 -141.9375 243.4375 C-141.21266945 242.17721051 -140.48806363 240.91679175 -139.76367188 239.65625 C-134.2626224 230.10317925 -128.64706108 220.61976582 -123.00366211 211.15014648 C-118.24540577 203.1497591 -113.59782837 195.09304251 -109 187 C-103.09153583 176.60103086 -97.05348845 166.28731255 -90.93408203 156.01049805 C-85.71598536 147.23716545 -80.59491271 138.4111779 -75.50585938 129.5625 C-71.33999144 122.31942088 -67.15092177 115.09052159 -62.9375 107.875 C-62.36298096 106.89104248 -61.78846191 105.90708496 -61.1965332 104.89331055 C-58.88864798 100.94208378 -56.57955677 96.9915624 -54.27050781 93.04101562 C-52.53393164 90.06934495 -50.79798808 87.09730626 -49.0625 84.125 C-48.48604736 83.13781982 -47.90959473 82.15063965 -47.31567383 81.13354492 C-43.05798315 73.833886 -38.8381125 66.51295231 -34.625 59.1875 C-28.74347423 48.96567085 -22.76712376 38.80400291 -16.73046875 28.67333984 C-13.64998854 23.49828558 -10.59248002 18.31449841 -7.6171875 13.078125 C-7.10704102 12.182146 -6.59689453 11.28616699 -6.07128906 10.36303711 C-5.13173275 8.70612543 -4.19841794 7.0456533 -3.27246094 5.38110352 C-2.2365518 3.55513936 -1.12638911 1.77158134 0 0 Z " fill="#39A900" transform="translate(299,308)"/>
<path d="M0 0 C17.7499903 -0.03185481 35.49998511 -0.05148988 53.25 -0.0625 C53.92929046 -0.0629343 54.60858092 -0.06336861 55.30845594 -0.06381607 C105.81149735 -0.09519762 156.3108381 0.13634837 206.8125 0.5 C207.64358088 0.50597372 208.47466175 0.51194743 209.3309269 0.51810217 C230.55401477 0.6708076 251.77702692 0.83208472 273 1 C273 16.18 273 31.36 273 47 C267.7907373 46.98428955 262.58147461 46.9685791 257.21435547 46.95239258 C240.02348086 46.90273437 222.83260348 46.86941334 205.64167595 46.84456348 C195.21648376 46.82909317 184.79135952 46.80800046 174.36621094 46.77368164 C165.27988424 46.74378438 156.19360674 46.72442619 147.10723221 46.71773452 C142.29585119 46.71382282 137.48461092 46.7046263 132.67327499 46.68280983 C128.14416286 46.66243956 123.61524941 46.65616731 119.08609581 46.66067696 C117.42444593 46.659852 115.76278937 46.65388954 114.10117912 46.64238358 C111.83030152 46.62743072 109.56017147 46.63105618 107.28927612 46.63923645 C106.01904539 46.63647107 104.74881466 46.63370569 103.44009209 46.63085651 C99.64050988 47.03857555 97.24345445 48.00915858 94 50 C90.86959528 54.17387296 90.11103962 58.61279366 90.2890625 63.734375 C91.72067649 70.31036016 95.79806772 75.77538204 99.36962891 81.3828125 C102.47014642 86.35998346 105.33997498 91.47248977 108.25 96.5625 C113.13869984 105.05813272 118.05379643 113.53772745 123 122 C128.49950795 131.40987238 133.95449216 140.84470599 139.39453125 150.2890625 C143.57349158 157.53951541 147.77747989 164.77483863 152 172 C156.83676456 180.27777121 161.64858598 188.56945061 166.4375 196.875 C167.0550415 197.94580811 167.67258301 199.01661621 168.30883789 200.11987305 C171.20854281 205.15017336 174.10543931 210.18206205 176.99642944 215.21737671 C177.99258233 216.95192773 178.98969582 218.68592696 179.98681641 220.41992188 C181.26947855 222.65069448 182.55045272 224.88243864 183.82958984 227.11523438 C186.40385677 231.59065789 188.98310562 236.0440229 191.7890625 240.37890625 C192.18230713 240.98822998 192.57555176 241.59755371 192.98071289 242.2253418 C193.96155099 243.72105903 194.96581937 245.20134623 195.97265625 246.6796875 C197 249 197 249 196.53515625 250.98828125 C194.42780997 253.74981645 191.96625005 256.02057714 189.375 258.3125 C188.83375488 258.79960449 188.29250977 259.28670898 187.73486328 259.78857422 C184.1873458 262.97300155 180.61058517 266.12493265 177.00390625 269.2421875 C173.7482657 272.09801254 170.57506685 275.04533403 167.39453125 277.984375 C165.04078606 279.96566785 162.6500589 281.45076021 160 283 C125.33333333 222.33333333 90.66666667 161.66666667 29.00024414 53.75038147 C28.33281624 52.58241319 27.66533568 51.41447501 26.99780273 50.24656677 C25.34235145 47.35005658 23.68799062 44.45293684 22.03515625 41.55493164 C18.90200595 36.06377553 15.7603477 30.57814172 12.58935547 25.10873413 C11.0849644 22.51275875 9.58526568 19.91408752 8.0859375 17.31518555 C7.36693338 16.07196148 6.64560918 14.83007607 5.921875 13.58959961 C4.92129854 11.87429234 3.92918913 10.15405443 2.9375 8.43359375 C2.36902344 7.45447021 1.80054688 6.47534668 1.21484375 5.46655273 C0 3 0 3 0 0 Z " fill="#39A900" transform="translate(327,261)"/>
<path d="M0 0 C10.3779925 8.44034919 17.5376313 18.29096262 22.38964844 30.76757812 C22.710625 31.54875 23.03160156 32.32992187 23.36230469 33.13476562 C28.65398888 48.542181 26.40957437 67.49205454 19.63964844 81.95507812 C16.75821636 87.39857173 13.4436962 92.14058143 9.38964844 96.76757812 C8.81859375 97.44433594 8.24753906 98.12109375 7.65917969 98.81835938 C-1.55621492 108.93760932 -16.97939824 116.99485964 -30.73071289 117.90844727 C-50.79280189 118.71125275 -68.30040509 115.4799447 -83.86035156 101.70507812 C-95.9933069 90.33191647 -104.05187434 74.49556238 -104.84863281 57.77148438 C-105.34882366 37.75033175 -99.59768417 20.50545053 -85.61035156 5.76757812 C-62.9151106 -16.04443011 -25.36107641 -19.40914399 0 0 Z " fill="#39A900" transform="translate(341.6103515625,13.232421875)"/>
<path d="M0 0 C6.81273998 -0.25473477 13.62424267 -0.42914803 20.44067383 -0.54931641 C22.75624473 -0.59943349 25.07150186 -0.66755016 27.38598633 -0.75439453 C46.60937551 -1.45733627 46.60937551 -1.45733627 52.38574219 2.06396484 C54.65957157 4.59301997 56.32654935 7.04883013 58 10 C58.93155116 11.09042624 59.89357651 12.15642246 60.8984375 13.1796875 C62.18302349 14.5777385 63.46756045 15.97583474 64.75146484 17.37451172 C66.16718346 18.91676414 67.58350398 20.45846158 69 22 C78.42324533 32.25509043 87.74697242 42.59034397 97 53 C97.33 35.51 97.66 18.02 98 0 C110.54 0 123.08 0 136 0 C136 28.05 136 56.1 136 85 C123.4084375 85.3403125 123.4084375 85.3403125 110.5625 85.6875 C107.92967041 85.78764404 105.29684082 85.88778809 102.58422852 85.9909668 C84.96839295 86.38469582 84.96839295 86.38469582 80.54248047 82.73095703 C78.26722328 79.92781344 76.63729552 77.20792637 75 74 C73.4403146 72.06763466 73.4403146 72.06763466 71.8125 70.46875 C71.34642334 69.97431396 70.88034668 69.47987793 70.40014648 68.97045898 C69.93809814 68.48520752 69.4760498 67.99995605 69 67.5 C64.54315398 62.74900072 60.37216932 57.84790768 56.29296875 52.765625 C52.87362829 48.64144604 49.23235736 44.74023091 45.578125 40.82421875 C42.96412284 37.9606982 40.48212934 34.97855521 38 32 C37.67 49.49 37.34 66.98 37 85 C24.46 85 11.92 85 -1 85 C-1.05013191 65.57388473 -0.87336701 46.17260194 -0.5 26.75 C-0.45158775 24.13151475 -0.40340979 21.51302517 -0.35546875 18.89453125 C-0.23966217 12.59630187 -0.12103184 6.29813103 0 0 Z " fill="#39A900" transform="translate(287,153)"/>
<path d="M0 0 C2.95694791 2.77213867 4.82364935 5.76456128 5.8125 9.69921875 C5.83488519 12.0324447 5.83673539 14.36601128 5.8125 16.69921875 C0.74056922 16.82277602 -4.33048696 16.9135349 -9.40356445 16.97387695 C-11.12930559 16.9990288 -12.85494012 17.03315494 -14.58032227 17.07641602 C-17.06032581 17.13704308 -19.53892222 17.16541976 -22.01953125 17.1875 C-22.79150345 17.21330643 -23.56347565 17.23911285 -24.35884094 17.26570129 C-26.54223633 17.2668457 -26.54223633 17.2668457 -30.1875 16.69921875 C-32.09399414 14.24023438 -32.09399414 14.24023438 -33.1875 11.69921875 C-38.2625961 8.20860101 -44.88241662 8.42579145 -50.8125 8.38671875 C-51.52873535 8.38115967 -52.2449707 8.37560059 -52.98291016 8.36987305 C-57.7198159 8.43373776 -61.68772742 9.2170102 -66.1875 10.69921875 C-66.23917527 13.12188961 -66.23917527 13.12188961 -65.1875 15.69921875 C-60.09162883 18.34176662 -55.16811472 19.45177196 -49.53515625 20.34765625 C-47.85350279 20.63403922 -46.1718626 20.92050015 -44.49023438 21.20703125 C-41.88489777 21.64007814 -39.27900355 22.06947137 -36.67260742 22.49609375 C-3.0368688 28.04478648 -3.0368688 28.04478648 7.25 39.38671875 C10.80149777 44.64293544 10.36030793 50.58599984 9.8125 56.69921875 C7.81548409 63.64425496 1.76892376 67.44276127 -4.21484375 70.85546875 C-15.51083762 76.40880652 -28.9644957 77.8278952 -41.4296875 77.90234375 C-42.19693146 77.90804382 -42.96417542 77.9137439 -43.75466919 77.9196167 C-45.37321625 77.929006 -46.99178191 77.93557631 -48.61035156 77.93945312 C-51.02184936 77.94905686 -53.43245511 77.98009521 -55.84375 78.01171875 C-69.43212824 78.1039399 -85.21871221 77.86508097 -97.1875 70.69921875 C-97.82945313 70.32925781 -98.47140625 69.95929688 -99.1328125 69.578125 C-103.6306533 66.70816382 -106.087908 63.70593814 -108.1875 58.69921875 C-108.5175 55.06921875 -108.8475 51.43921875 -109.1875 47.69921875 C-96.6475 47.69921875 -84.1075 47.69921875 -71.1875 47.69921875 C-70.5275 50.00921875 -69.8675 52.31921875 -69.1875 54.69921875 C-62.83973092 58.83906815 -56.70865874 58.90667396 -49.375 58.94921875 C-48.49779297 58.96984375 -47.62058594 58.99046875 -46.71679688 59.01171875 C-41.10178009 59.04531646 -37.13218419 58.42937192 -32.1875 55.69921875 C-31.17122498 53.46341371 -31.1875 52.12115952 -31.1875 49.69921875 C-34.89510736 48.9456022 -38.6036431 48.19666075 -42.3125 47.44921875 C-43.44163818 47.22105469 -44.57077637 46.99289063 -45.73413086 46.7578125 C-52.14477528 45.47290204 -58.55987554 44.27009426 -65.00488281 43.17138672 C-94.58278624 38.08390315 -94.58278624 38.08390315 -104.625 27.01171875 C-108.03134147 21.97033338 -107.62650644 16.56670862 -107.1875 10.69921875 C-105.37831782 4.81937665 -101.19729275 1.05476069 -96.1875 -2.30078125 C-71.66818438 -14.32315536 -23.12176906 -16.87379102 0 0 Z " fill="#39A900" transform="translate(138.1875,160.30078125)"/>
<path d="M0 0 C8.48321132 0.10469541 15.68098733 0.91513324 22.02856445 6.94897461 C30.89269048 16.82661124 37.21163139 28.79742016 43.35961914 40.47875977 C50.11962964 53.26240709 58.35369233 65.28811319 66.59350586 77.15551758 C67.89241287 79.03171659 69.18940879 80.90924069 70.48413086 82.78833008 C71.03617188 83.58384277 71.58821289 84.37935547 72.15698242 85.19897461 C73.34350586 87.03051758 73.34350586 87.03051758 73.34350586 88.03051758 C58.82350586 88.03051758 44.30350586 88.03051758 29.34350586 88.03051758 C26.70350586 83.41051758 24.06350586 78.79051758 21.34350586 74.03051758 C16.07106308 72.6083129 13.12445298 72.22908043 7.87475586 72.44458008 C6.59870483 72.4421933 5.32265381 72.43980652 4.00793457 72.43734741 C0.63632438 72.44346719 -2.72294587 72.50954474 -6.09240723 72.60565186 C-9.53795971 72.68889203 -12.98352586 72.69212612 -16.42993164 72.70239258 C-23.17451204 72.73857195 -29.91420554 72.85398127 -36.65649414 73.03051758 C-37.69059898 75.56987959 -38.66383409 78.05512747 -39.44799805 80.68432617 C-40.78794685 83.99562296 -41.87779051 85.74072914 -44.65649414 88.03051758 C-51.2032953 89.77869748 -58.33860354 88.96126073 -65.03149414 88.65551758 C-66.93111745 88.60533152 -68.83086717 88.55970851 -70.73071289 88.51879883 C-75.37576537 88.40883686 -80.01474697 88.2364654 -84.65649414 88.03051758 C-80.97530581 82.17773528 -77.2911076 76.36939991 -73.21899414 70.78051758 C-63.94785783 57.95037193 -54.98251438 44.89778302 -46.03149414 31.84301758 C-41.73047348 25.57038591 -37.38881426 19.3266666 -33.03149414 13.09301758 C-32.4145166 12.20912354 -31.79753906 11.32522949 -31.16186523 10.41455078 C-30.59032715 9.59817139 -30.01878906 8.78179199 -29.42993164 7.94067383 C-28.91865723 7.20985596 -28.40738281 6.47903809 -27.88061523 5.72607422 C-23.16503734 -0.80557486 -7.46211004 0.24531678 0 0 Z M-6.65649414 25.03051758 C-7.54483158 26.29542454 -8.38415929 27.59478181 -9.20336914 28.90551758 C-9.71899414 29.72665039 -10.23461914 30.5477832 -10.76586914 31.39379883 C-11.30727539 32.26391602 -11.84868164 33.1340332 -12.40649414 34.03051758 C-12.93243164 34.86969727 -13.45836914 35.70887695 -14.00024414 36.57348633 C-15.04796797 38.24621373 -16.09291622 39.92068302 -17.13500977 41.59692383 C-18.13384284 43.19454387 -19.14267794 44.7859627 -20.16235352 46.37036133 C-20.8478125 47.43963867 -20.8478125 47.43963867 -21.54711914 48.53051758 C-21.95478516 49.15958008 -22.36245117 49.78864258 -22.7824707 50.43676758 C-23.81677612 52.01983949 -23.81677612 52.01983949 -23.65649414 54.03051758 C-12.43649414 54.03051758 -1.21649414 54.03051758 10.34350586 54.03051758 C7.88378078 47.88120488 4.62454286 42.42169834 1.28100586 36.71801758 C0.30550781 35.03482422 0.30550781 35.03482422 -0.68969727 33.31762695 C-1.3090918 32.25737305 -1.92848633 31.19711914 -2.56665039 30.10473633 C-3.41948608 28.6442688 -3.41948608 28.6442688 -4.28955078 27.15429688 C-4.96618774 26.10302612 -4.96618774 26.10302612 -5.65649414 25.03051758 C-5.98649414 25.03051758 -6.31649414 25.03051758 -6.65649414 25.03051758 Z " fill="#39A900" transform="translate(511.656494140625,149.969482421875)"/>
<path d="M0 0 C33.33 0 66.66 0 101 0 C101 6.27 101 12.54 101 19 C80.21 19 59.42 19 38 19 C38 23.29 38 27.58 38 32 C57.47 32 76.94 32 97 32 C97 37.94 97 43.88 97 50 C77.53 50 58.06 50 38 50 C38 55.28 38 60.56 38 66 C59.78 66 81.56 66 104 66 C104 72.27 104 78.54 104 85 C69.68 85 35.36 85 0 85 C0 56.95 0 28.9 0 0 Z " fill="#39A900" transform="translate(165,153)"/>
</svg>
